<mxfile host="Electron" agent="Mozilla/5.0 (Windows NT 10.0; Win64; x64) AppleWebKit/537.36 (KHTML, like Gecko) draw.io/26.0.4 Chrome/128.0.6613.186 Electron/32.2.5 Safari/537.36" version="26.0.4">
  <diagram name="ページ1" id="oXaW7aQPTFVuqWrh0Pf7">
    <mxGraphModel dx="1912" dy="1139" grid="1" gridSize="10" guides="1" tooltips="1" connect="1" arrows="1" fold="1" page="1" pageScale="1" pageWidth="1169" pageHeight="1654" math="0" shadow="0">
      <root>
        <mxCell id="0" />
        <mxCell id="1" parent="0" />
        <mxCell id="-X1_m2EYrhHD0JWwDC6E-24" value="" style="group" parent="1" vertex="1" connectable="0">
          <mxGeometry x="1700" y="280" width="340" height="190" as="geometry" />
        </mxCell>
        <mxCell id="-X1_m2EYrhHD0JWwDC6E-25" value="" style="rounded=0;whiteSpace=wrap;html=1;align=center;" parent="-X1_m2EYrhHD0JWwDC6E-24" vertex="1">
          <mxGeometry width="340" height="190" as="geometry" />
        </mxCell>
        <mxCell id="-X1_m2EYrhHD0JWwDC6E-26" value="&lt;b&gt;&lt;u&gt;ユーザー認証情報集約(UserAuthInfoAggregation)&lt;/u&gt;&lt;/b&gt;" style="text;html=1;align=center;verticalAlign=middle;whiteSpace=wrap;rounded=0;" parent="-X1_m2EYrhHD0JWwDC6E-24" vertex="1">
          <mxGeometry x="27.019999999999996" y="7.037037037037037" width="285.95" height="29.99888888888889" as="geometry" />
        </mxCell>
        <mxCell id="-X1_m2EYrhHD0JWwDC6E-27" value="&lt;b&gt;&lt;u&gt;ユーザー認証情報(UserAuthInfo)&lt;/u&gt;&lt;/b&gt;&lt;br&gt;ユーザーID(userId)&lt;br&gt;メールアドレス(email)&lt;br&gt;パスワード(password)" style="rounded=1;whiteSpace=wrap;html=1;aspect=fixed;fillColor=#f8cecc;strokeColor=#b85450;" parent="-X1_m2EYrhHD0JWwDC6E-24" vertex="1">
          <mxGeometry x="41.889999999999986" y="45.00148148148148" width="256.21" height="100" as="geometry" />
        </mxCell>
        <mxCell id="-X1_m2EYrhHD0JWwDC6E-133" value="" style="group" parent="1" vertex="1" connectable="0">
          <mxGeometry x="450" y="280" width="340" height="190" as="geometry" />
        </mxCell>
        <mxCell id="-X1_m2EYrhHD0JWwDC6E-134" value="" style="rounded=0;whiteSpace=wrap;html=1;align=center;" parent="-X1_m2EYrhHD0JWwDC6E-133" vertex="1">
          <mxGeometry width="340" height="190" as="geometry" />
        </mxCell>
        <mxCell id="-X1_m2EYrhHD0JWwDC6E-135" value="&lt;b&gt;&lt;u&gt;ユーザー設定集約(UserSettingAggregation)&lt;/u&gt;&lt;/b&gt;" style="text;html=1;align=center;verticalAlign=middle;whiteSpace=wrap;rounded=0;" parent="-X1_m2EYrhHD0JWwDC6E-133" vertex="1">
          <mxGeometry x="27.019999999999996" y="7.037037037037037" width="285.95" height="29.99888888888889" as="geometry" />
        </mxCell>
        <mxCell id="-X1_m2EYrhHD0JWwDC6E-136" value="&lt;b&gt;&lt;u&gt;ユーザー設定(UserSetting)&lt;/u&gt;&lt;/b&gt;&lt;br&gt;ユーザーID(userId)&lt;br&gt;ユーザー名(userName)&lt;br&gt;二段階認証設定(twoFactorAuthEnabled)&lt;br&gt;プロフィール画像(profileImage)" style="rounded=1;whiteSpace=wrap;html=1;aspect=fixed;fillColor=#f8cecc;strokeColor=#b85450;" parent="-X1_m2EYrhHD0JWwDC6E-133" vertex="1">
          <mxGeometry x="41.889999999999986" y="45.00148148148148" width="256.21" height="100" as="geometry" />
        </mxCell>
        <mxCell id="-X1_m2EYrhHD0JWwDC6E-205" value="" style="group" parent="1" vertex="1" connectable="0">
          <mxGeometry x="110" y="650" width="2175" height="970" as="geometry" />
        </mxCell>
        <mxCell id="-X1_m2EYrhHD0JWwDC6E-150" value="" style="group;" parent="-X1_m2EYrhHD0JWwDC6E-205" vertex="1" connectable="0">
          <mxGeometry x="615" width="1140" height="730.0014814814815" as="geometry" />
        </mxCell>
        <mxCell id="-X1_m2EYrhHD0JWwDC6E-209" style="rounded=0;orthogonalLoop=1;jettySize=auto;html=1;exitX=0.5;exitY=0;exitDx=0;exitDy=0;entryX=0.5;entryY=1;entryDx=0;entryDy=0;endSize=12;" parent="-X1_m2EYrhHD0JWwDC6E-150" source="-X1_m2EYrhHD0JWwDC6E-151" target="-X1_m2EYrhHD0JWwDC6E-2" edge="1">
          <mxGeometry relative="1" as="geometry" />
        </mxCell>
        <mxCell id="-X1_m2EYrhHD0JWwDC6E-210" value="&lt;font style=&quot;font-size: 14px;&quot;&gt;0..*&lt;/font&gt;" style="edgeLabel;html=1;align=center;verticalAlign=middle;resizable=0;points=[];" parent="-X1_m2EYrhHD0JWwDC6E-209" vertex="1" connectable="0">
          <mxGeometry x="-0.6243" y="1" relative="1" as="geometry">
            <mxPoint x="15" as="offset" />
          </mxGeometry>
        </mxCell>
        <mxCell id="-X1_m2EYrhHD0JWwDC6E-211" value="&lt;font style=&quot;font-size: 14px;&quot;&gt;1&lt;/font&gt;" style="edgeLabel;html=1;align=center;verticalAlign=middle;resizable=0;points=[];" parent="-X1_m2EYrhHD0JWwDC6E-209" vertex="1" connectable="0">
          <mxGeometry x="0.5948" y="-1" relative="1" as="geometry">
            <mxPoint x="5" as="offset" />
          </mxGeometry>
        </mxCell>
        <mxCell id="-X1_m2EYrhHD0JWwDC6E-151" value="" style="rounded=0;whiteSpace=wrap;html=1;align=center;" parent="-X1_m2EYrhHD0JWwDC6E-150" vertex="1">
          <mxGeometry width="1140" height="700" as="geometry" />
        </mxCell>
        <mxCell id="-X1_m2EYrhHD0JWwDC6E-152" value="&lt;b&gt;&lt;u&gt;職務経歴書集約(Resume&lt;/u&gt;&lt;/b&gt;&lt;b&gt;&lt;u&gt;Aggregation)&lt;/u&gt;&lt;/b&gt;" style="text;html=1;align=center;verticalAlign=middle;whiteSpace=wrap;rounded=0;" parent="-X1_m2EYrhHD0JWwDC6E-150" vertex="1">
          <mxGeometry x="90.59647058823532" y="20.69851851851851" width="958.7735294117647" height="88.23778444444443" as="geometry" />
        </mxCell>
        <mxCell id="-X1_m2EYrhHD0JWwDC6E-153" value="&lt;b&gt;&lt;u&gt;職務経歴書(Resume)&lt;/u&gt;&lt;/b&gt;&lt;div&gt;職務経歴書ID(id)&lt;br&gt;職務経歴書名(name)&lt;br&gt;日付(date)&lt;br&gt;姓(lastName)&lt;br&gt;名(firstName)&lt;br&gt;自動保存設定(autoSaveEnabled)&lt;/div&gt;&lt;div&gt;作成日時(createdAt)&lt;br&gt;更新日時(updatedAt)&lt;/div&gt;" style="rounded=1;whiteSpace=wrap;html=1;fillColor=#f8cecc;strokeColor=#b85450;" parent="-X1_m2EYrhHD0JWwDC6E-150" vertex="1">
          <mxGeometry x="441.8800000000001" y="255.0014814814815" width="256.21" height="190" as="geometry" />
        </mxCell>
        <mxCell id="-X1_m2EYrhHD0JWwDC6E-166" style="rounded=0;orthogonalLoop=1;jettySize=auto;html=1;exitX=1;exitY=0.5;exitDx=0;exitDy=0;entryX=0;entryY=0.5;entryDx=0;entryDy=0;endArrow=diamondThin;endFill=1;endSize=12;" parent="-X1_m2EYrhHD0JWwDC6E-150" source="-X1_m2EYrhHD0JWwDC6E-154" target="-X1_m2EYrhHD0JWwDC6E-153" edge="1">
          <mxGeometry relative="1" as="geometry" />
        </mxCell>
        <mxCell id="-X1_m2EYrhHD0JWwDC6E-168" value="&lt;font style=&quot;font-size: 14px;&quot;&gt;0..*&lt;/font&gt;" style="edgeLabel;html=1;align=center;verticalAlign=middle;resizable=0;points=[];" parent="-X1_m2EYrhHD0JWwDC6E-166" vertex="1" connectable="0">
          <mxGeometry x="-0.7476" y="-1" relative="1" as="geometry">
            <mxPoint x="2" y="-1" as="offset" />
          </mxGeometry>
        </mxCell>
        <mxCell id="-X1_m2EYrhHD0JWwDC6E-169" value="&lt;font style=&quot;font-size: 14px;&quot;&gt;1&lt;/font&gt;" style="edgeLabel;html=1;align=center;verticalAlign=middle;resizable=0;points=[];" parent="-X1_m2EYrhHD0JWwDC6E-166" vertex="1" connectable="0">
          <mxGeometry x="0.3924" y="-2" relative="1" as="geometry">
            <mxPoint x="9" y="-2" as="offset" />
          </mxGeometry>
        </mxCell>
        <mxCell id="-X1_m2EYrhHD0JWwDC6E-154" value="&lt;b&gt;&lt;u&gt;プロジェクト(Project)&lt;/u&gt;&lt;/b&gt;&lt;div&gt;プロジェクトID(id)&lt;br&gt;会社名(companyName)&lt;br&gt;開始年月(startDate)&lt;br&gt;終了年月(endDate)&lt;br&gt;担当中フラグ(isAssigned)&lt;br&gt;プロジェクト名(projectName)&lt;br&gt;プロジェクト概要(overview)&lt;br&gt;チーム構成(teamComp)&lt;br&gt;役割(role)&lt;br&gt;成果(achievement)&lt;br&gt;作業工程(process)&lt;br&gt;&lt;/div&gt;" style="rounded=1;whiteSpace=wrap;html=1;fillColor=#d5e8d4;strokeColor=#82b366;" parent="-X1_m2EYrhHD0JWwDC6E-150" vertex="1">
          <mxGeometry x="50" y="255" width="256.21" height="190" as="geometry" />
        </mxCell>
        <mxCell id="-X1_m2EYrhHD0JWwDC6E-164" style="rounded=0;orthogonalLoop=1;jettySize=auto;html=1;exitX=0;exitY=0.5;exitDx=0;exitDy=0;entryX=0.75;entryY=0;entryDx=0;entryDy=0;endArrow=diamondThin;endFill=1;endSize=12;" parent="-X1_m2EYrhHD0JWwDC6E-150" source="-X1_m2EYrhHD0JWwDC6E-128" target="-X1_m2EYrhHD0JWwDC6E-153" edge="1">
          <mxGeometry relative="1" as="geometry" />
        </mxCell>
        <mxCell id="-X1_m2EYrhHD0JWwDC6E-174" value="&lt;font style=&quot;font-size: 14px;&quot;&gt;1&lt;/font&gt;" style="edgeLabel;html=1;align=center;verticalAlign=middle;resizable=0;points=[];" parent="-X1_m2EYrhHD0JWwDC6E-164" vertex="1" connectable="0">
          <mxGeometry x="0.7055" relative="1" as="geometry">
            <mxPoint as="offset" />
          </mxGeometry>
        </mxCell>
        <mxCell id="-X1_m2EYrhHD0JWwDC6E-175" value="&lt;font style=&quot;font-size: 14px;&quot;&gt;0..*&lt;/font&gt;" style="edgeLabel;html=1;align=center;verticalAlign=middle;resizable=0;points=[];" parent="-X1_m2EYrhHD0JWwDC6E-164" vertex="1" connectable="0">
          <mxGeometry x="-0.6579" relative="1" as="geometry">
            <mxPoint as="offset" />
          </mxGeometry>
        </mxCell>
        <mxCell id="-X1_m2EYrhHD0JWwDC6E-128" value="&lt;b&gt;&lt;u&gt;職歴(&lt;/u&gt;&lt;/b&gt;&lt;b&gt;&lt;u&gt;Career&lt;/u&gt;&lt;/b&gt;&lt;b&gt;&lt;u&gt;)&lt;/u&gt;&lt;/b&gt;&lt;br&gt;会社名(companyName)&lt;br&gt;入社年月(startDate)&lt;br&gt;退職年月(endDate)&lt;br&gt;在職中フラグ(isEmployed)" style="rounded=1;whiteSpace=wrap;html=1;aspect=fixed;fillColor=#dae8fc;strokeColor=#6c8ebf;" parent="-X1_m2EYrhHD0JWwDC6E-150" vertex="1">
          <mxGeometry x="840" y="39.47148148148152" width="256.21" height="100" as="geometry" />
        </mxCell>
        <mxCell id="-X1_m2EYrhHD0JWwDC6E-157" style="rounded=0;orthogonalLoop=1;jettySize=auto;html=1;entryX=1;entryY=0.25;entryDx=0;entryDy=0;endArrow=diamondThin;endFill=1;endSize=12;" parent="-X1_m2EYrhHD0JWwDC6E-150" source="-X1_m2EYrhHD0JWwDC6E-132" target="-X1_m2EYrhHD0JWwDC6E-153" edge="1">
          <mxGeometry relative="1" as="geometry" />
        </mxCell>
        <mxCell id="-X1_m2EYrhHD0JWwDC6E-176" value="&lt;font style=&quot;font-size: 14px;&quot;&gt;1&lt;/font&gt;" style="edgeLabel;html=1;align=center;verticalAlign=middle;resizable=0;points=[];" parent="-X1_m2EYrhHD0JWwDC6E-157" vertex="1" connectable="0">
          <mxGeometry x="0.6329" y="2" relative="1" as="geometry">
            <mxPoint as="offset" />
          </mxGeometry>
        </mxCell>
        <mxCell id="-X1_m2EYrhHD0JWwDC6E-177" value="&lt;font style=&quot;font-size: 14px;&quot;&gt;0..*&lt;/font&gt;" style="edgeLabel;html=1;align=center;verticalAlign=middle;resizable=0;points=[];" parent="-X1_m2EYrhHD0JWwDC6E-157" vertex="1" connectable="0">
          <mxGeometry x="-0.6124" y="1" relative="1" as="geometry">
            <mxPoint y="-1" as="offset" />
          </mxGeometry>
        </mxCell>
        <mxCell id="-X1_m2EYrhHD0JWwDC6E-132" value="&lt;b&gt;&lt;u&gt;資格(&lt;/u&gt;&lt;/b&gt;&lt;u style=&quot;&quot;&gt;&lt;b&gt;Certification)&lt;/b&gt;&lt;/u&gt;&lt;br&gt;資格名(name)&lt;br&gt;取得年月(date)" style="rounded=1;whiteSpace=wrap;html=1;aspect=fixed;fillColor=#dae8fc;strokeColor=#6c8ebf;" parent="-X1_m2EYrhHD0JWwDC6E-150" vertex="1">
          <mxGeometry x="840" y="170.54148148148153" width="256.21" height="100" as="geometry" />
        </mxCell>
        <mxCell id="-X1_m2EYrhHD0JWwDC6E-161" style="rounded=0;orthogonalLoop=1;jettySize=auto;html=1;exitX=0;exitY=0.5;exitDx=0;exitDy=0;entryX=1;entryY=0.5;entryDx=0;entryDy=0;endArrow=diamondThin;endFill=1;endSize=12;" parent="-X1_m2EYrhHD0JWwDC6E-150" source="-X1_m2EYrhHD0JWwDC6E-140" target="-X1_m2EYrhHD0JWwDC6E-153" edge="1">
          <mxGeometry relative="1" as="geometry" />
        </mxCell>
        <mxCell id="-X1_m2EYrhHD0JWwDC6E-178" value="&lt;font style=&quot;font-size: 14px;&quot;&gt;1&lt;/font&gt;" style="edgeLabel;html=1;align=center;verticalAlign=middle;resizable=0;points=[];" parent="-X1_m2EYrhHD0JWwDC6E-161" vertex="1" connectable="0">
          <mxGeometry x="0.5691" relative="1" as="geometry">
            <mxPoint x="1" as="offset" />
          </mxGeometry>
        </mxCell>
        <mxCell id="-X1_m2EYrhHD0JWwDC6E-179" value="&lt;font style=&quot;font-size: 14px;&quot;&gt;0..*&lt;/font&gt;" style="edgeLabel;html=1;align=center;verticalAlign=middle;resizable=0;points=[];" parent="-X1_m2EYrhHD0JWwDC6E-161" vertex="1" connectable="0">
          <mxGeometry x="-0.6525" y="2" relative="1" as="geometry">
            <mxPoint x="-1" y="-2" as="offset" />
          </mxGeometry>
        </mxCell>
        <mxCell id="-X1_m2EYrhHD0JWwDC6E-140" value="&lt;u style=&quot;&quot;&gt;&lt;b&gt;ポートフォリオ(Portfolio)&lt;/b&gt;&lt;/u&gt;&lt;br&gt;ポートフォリオ名(name)&lt;br&gt;ポートフォリオ概要(overviwe)&lt;br&gt;リンク(link)&lt;br&gt;技術スタック(techStack)" style="rounded=1;whiteSpace=wrap;html=1;aspect=fixed;fillColor=#dae8fc;strokeColor=#6c8ebf;" parent="-X1_m2EYrhHD0JWwDC6E-150" vertex="1">
          <mxGeometry x="840" y="300.5414814814815" width="256.21" height="100" as="geometry" />
        </mxCell>
        <mxCell id="-X1_m2EYrhHD0JWwDC6E-162" style="rounded=0;orthogonalLoop=1;jettySize=auto;html=1;exitX=0;exitY=0.5;exitDx=0;exitDy=0;entryX=1;entryY=0.75;entryDx=0;entryDy=0;endArrow=diamondThin;endFill=1;endSize=12;" parent="-X1_m2EYrhHD0JWwDC6E-150" source="-X1_m2EYrhHD0JWwDC6E-145" target="-X1_m2EYrhHD0JWwDC6E-153" edge="1">
          <mxGeometry relative="1" as="geometry" />
        </mxCell>
        <mxCell id="-X1_m2EYrhHD0JWwDC6E-180" value="&lt;font style=&quot;font-size: 14px;&quot;&gt;1&lt;/font&gt;" style="edgeLabel;html=1;align=center;verticalAlign=middle;resizable=0;points=[];" parent="-X1_m2EYrhHD0JWwDC6E-162" vertex="1" connectable="0">
          <mxGeometry x="0.6159" y="-1" relative="1" as="geometry">
            <mxPoint x="1" as="offset" />
          </mxGeometry>
        </mxCell>
        <mxCell id="-X1_m2EYrhHD0JWwDC6E-181" value="&lt;font style=&quot;font-size: 14px;&quot;&gt;0..*&lt;/font&gt;" style="edgeLabel;html=1;align=center;verticalAlign=middle;resizable=0;points=[];" parent="-X1_m2EYrhHD0JWwDC6E-162" vertex="1" connectable="0">
          <mxGeometry x="-0.6742" y="3" relative="1" as="geometry">
            <mxPoint x="1" y="-2" as="offset" />
          </mxGeometry>
        </mxCell>
        <mxCell id="-X1_m2EYrhHD0JWwDC6E-145" value="&lt;div&gt;&lt;b&gt;&lt;u&gt;ソーシャルリンク(SociealLink)&lt;/u&gt;&lt;/b&gt;&lt;br&gt;ソーシャル名(name)&lt;br&gt;リンク(link)&lt;br&gt;&lt;/div&gt;" style="rounded=1;whiteSpace=wrap;html=1;aspect=fixed;fillColor=#dae8fc;strokeColor=#6c8ebf;" parent="-X1_m2EYrhHD0JWwDC6E-150" vertex="1">
          <mxGeometry x="840" y="430.5414814814815" width="256.21" height="100" as="geometry" />
        </mxCell>
        <mxCell id="-X1_m2EYrhHD0JWwDC6E-163" style="rounded=0;orthogonalLoop=1;jettySize=auto;html=1;exitX=0;exitY=0.5;exitDx=0;exitDy=0;entryX=0.75;entryY=1;entryDx=0;entryDy=0;endArrow=diamondThin;endFill=1;endSize=12;" parent="-X1_m2EYrhHD0JWwDC6E-150" source="-X1_m2EYrhHD0JWwDC6E-149" target="-X1_m2EYrhHD0JWwDC6E-153" edge="1">
          <mxGeometry relative="1" as="geometry" />
        </mxCell>
        <mxCell id="-X1_m2EYrhHD0JWwDC6E-182" value="&lt;font style=&quot;font-size: 14px;&quot;&gt;1&lt;/font&gt;" style="edgeLabel;html=1;align=center;verticalAlign=middle;resizable=0;points=[];" parent="-X1_m2EYrhHD0JWwDC6E-163" vertex="1" connectable="0">
          <mxGeometry x="0.7764" y="3" relative="1" as="geometry">
            <mxPoint x="3" y="-2" as="offset" />
          </mxGeometry>
        </mxCell>
        <mxCell id="-X1_m2EYrhHD0JWwDC6E-183" value="&lt;font style=&quot;font-size: 14px;&quot;&gt;0..*&lt;/font&gt;" style="edgeLabel;html=1;align=center;verticalAlign=middle;resizable=0;points=[];" parent="-X1_m2EYrhHD0JWwDC6E-163" vertex="1" connectable="0">
          <mxGeometry x="-0.7524" y="3" relative="1" as="geometry">
            <mxPoint x="1" as="offset" />
          </mxGeometry>
        </mxCell>
        <mxCell id="-X1_m2EYrhHD0JWwDC6E-149" value="&lt;div&gt;&lt;b&gt;&lt;u&gt;自己PR(SelfPromotion)&lt;/u&gt;&lt;/b&gt;&lt;br&gt;タイトル(title)&lt;br&gt;コンテンツ(content)&lt;br&gt;&lt;/div&gt;" style="rounded=1;whiteSpace=wrap;html=1;aspect=fixed;fillColor=#dae8fc;strokeColor=#6c8ebf;" parent="-X1_m2EYrhHD0JWwDC6E-150" vertex="1">
          <mxGeometry x="840" y="560.5414814814815" width="256.21" height="100" as="geometry" />
        </mxCell>
        <mxCell id="-X1_m2EYrhHD0JWwDC6E-167" style="rounded=0;orthogonalLoop=1;jettySize=auto;html=1;exitX=0.5;exitY=0;exitDx=0;exitDy=0;entryX=0.5;entryY=1;entryDx=0;entryDy=0;endArrow=diamondThin;endFill=1;targetPerimeterSpacing=0;endSize=12;" parent="-X1_m2EYrhHD0JWwDC6E-150" source="-X1_m2EYrhHD0JWwDC6E-155" target="-X1_m2EYrhHD0JWwDC6E-154" edge="1">
          <mxGeometry relative="1" as="geometry" />
        </mxCell>
        <mxCell id="-X1_m2EYrhHD0JWwDC6E-170" value="&lt;font style=&quot;font-size: 14px;&quot;&gt;1&lt;/font&gt;" style="edgeLabel;html=1;align=center;verticalAlign=middle;resizable=0;points=[];" parent="-X1_m2EYrhHD0JWwDC6E-167" vertex="1" connectable="0">
          <mxGeometry x="0.5038" y="-3" relative="1" as="geometry">
            <mxPoint x="1" as="offset" />
          </mxGeometry>
        </mxCell>
        <mxCell id="-X1_m2EYrhHD0JWwDC6E-171" value="&lt;font style=&quot;font-size: 14px;&quot;&gt;1&lt;/font&gt;" style="edgeLabel;html=1;align=center;verticalAlign=middle;resizable=0;points=[];" parent="-X1_m2EYrhHD0JWwDC6E-167" vertex="1" connectable="0">
          <mxGeometry x="-0.7195" y="-1" relative="1" as="geometry">
            <mxPoint x="4" as="offset" />
          </mxGeometry>
        </mxCell>
        <mxCell id="-X1_m2EYrhHD0JWwDC6E-155" value="&lt;b&gt;&lt;u&gt;技術スタック(TeckStack)&lt;/u&gt;&lt;/b&gt;&lt;div&gt;開発言語(DevlopmentLang)&lt;br&gt;フレームワーク(Framework)&lt;br&gt;インフラ(Infrastructire)&lt;br&gt;開発支援ツール(Tool)&lt;/div&gt;" style="rounded=1;whiteSpace=wrap;html=1;fillColor=#dae8fc;strokeColor=#6c8ebf;" parent="-X1_m2EYrhHD0JWwDC6E-150" vertex="1">
          <mxGeometry x="50" y="560.54" width="256.21" height="100" as="geometry" />
        </mxCell>
        <mxCell id="-X1_m2EYrhHD0JWwDC6E-17" value="" style="group" parent="-X1_m2EYrhHD0JWwDC6E-150" vertex="1" connectable="0">
          <mxGeometry x="440" y="-371" width="260" height="190" as="geometry" />
        </mxCell>
        <mxCell id="-X1_m2EYrhHD0JWwDC6E-2" value="" style="rounded=0;whiteSpace=wrap;html=1;align=center;" parent="-X1_m2EYrhHD0JWwDC6E-17" vertex="1">
          <mxGeometry width="260" height="190" as="geometry" />
        </mxCell>
        <mxCell id="-X1_m2EYrhHD0JWwDC6E-3" value="&lt;b&gt;&lt;u&gt;ユーザー集約(UserAggregation)&lt;/u&gt;&lt;/b&gt;" style="text;html=1;align=center;verticalAlign=middle;whiteSpace=wrap;rounded=0;" parent="-X1_m2EYrhHD0JWwDC6E-17" vertex="1">
          <mxGeometry x="40" y="10.000000000000007" width="180" height="29.999999999999993" as="geometry" />
        </mxCell>
        <mxCell id="-X1_m2EYrhHD0JWwDC6E-8" value="&lt;b&gt;&lt;u&gt;ユーザー(User)&lt;/u&gt;&lt;/b&gt;&lt;br&gt;ユーザーID(userId)&lt;br&gt;メールアドレス(email)" style="rounded=1;whiteSpace=wrap;html=1;fillColor=#f8cecc;strokeColor=#b85450;" parent="-X1_m2EYrhHD0JWwDC6E-17" vertex="1">
          <mxGeometry x="50" y="50.294117647058826" width="160" height="89.41176470588235" as="geometry" />
        </mxCell>
        <mxCell id="-X1_m2EYrhHD0JWwDC6E-189" style="rounded=0;orthogonalLoop=1;jettySize=auto;html=1;entryX=0.5;entryY=1;entryDx=0;entryDy=0;dashed=1;endArrow=none;endFill=0;" parent="-X1_m2EYrhHD0JWwDC6E-205" source="-X1_m2EYrhHD0JWwDC6E-188" target="-X1_m2EYrhHD0JWwDC6E-153" edge="1">
          <mxGeometry relative="1" as="geometry" />
        </mxCell>
        <mxCell id="-X1_m2EYrhHD0JWwDC6E-188" value="&lt;span style=&quot;&quot;&gt;&lt;b&gt;【職務経歴書ID】&lt;/b&gt;&lt;/span&gt;&lt;br style=&quot;&quot;&gt;&lt;span style=&quot;&quot;&gt;・UUIDによって自動生成された文字列とする。&lt;/span&gt;&lt;br style=&quot;&quot;&gt;&lt;span style=&quot;&quot;&gt;&lt;b&gt;【職務経歴書名】&lt;/b&gt;&lt;/span&gt;&lt;br style=&quot;&quot;&gt;&lt;span style=&quot;&quot;&gt;・ユーザーが任意のファイル名を設定可能。&lt;/span&gt;&lt;br style=&quot;&quot;&gt;&lt;span style=&quot;&quot;&gt;・MAX_LENGTH=50、MIN_LENGTH=1&lt;/span&gt;&lt;br style=&quot;&quot;&gt;&lt;span style=&quot;&quot;&gt;&lt;b&gt;【日付】&lt;/b&gt;&lt;/span&gt;&lt;br style=&quot;&quot;&gt;&lt;span style=&quot;&quot;&gt;・新規作成した日付を自動挿入する。&lt;/span&gt;&lt;br style=&quot;&quot;&gt;&lt;span style=&quot;&quot;&gt;・ユーザーが編集可能。&lt;br&gt;&lt;b&gt;【姓、名】&lt;/b&gt;&lt;br&gt;・MAX_LENGTH=10、MIN_LENGTH=1&lt;br&gt;&lt;b&gt;【自動保存設定】&lt;/b&gt;&lt;br&gt;・ユーザーが有効化/無効化を職務経歴書単位で設定でき、有効化である場合のみ自動保存する。&lt;/span&gt;&lt;div&gt;&lt;b&gt;【作成日時】&lt;/b&gt;&lt;br&gt;・新規作成した職務経歴書を初めて保存した日時とし、形式はyyyy/MM/dd hh:mm:ssとする。&lt;br&gt;&lt;b&gt;【更新日時】&lt;/b&gt;&lt;br&gt;・最後に職務経歴書を保存した日時とし、&lt;span style=&quot;background-color: initial;&quot;&gt;形式はyyyy/MM/dd hh:mm:ssとする。&lt;/span&gt;&lt;/div&gt;" style="rounded=0;whiteSpace=wrap;html=1;fillColor=#fff2cc;strokeColor=#d6b656;align=left;" parent="-X1_m2EYrhHD0JWwDC6E-205" vertex="1">
          <mxGeometry x="940" y="720" width="530" height="250" as="geometry" />
        </mxCell>
        <mxCell id="-X1_m2EYrhHD0JWwDC6E-191" style="rounded=0;orthogonalLoop=1;jettySize=auto;html=1;entryX=0;entryY=0.5;entryDx=0;entryDy=0;endArrow=none;endFill=0;dashed=1;" parent="-X1_m2EYrhHD0JWwDC6E-205" source="-X1_m2EYrhHD0JWwDC6E-190" target="-X1_m2EYrhHD0JWwDC6E-155" edge="1">
          <mxGeometry relative="1" as="geometry" />
        </mxCell>
        <mxCell id="-X1_m2EYrhHD0JWwDC6E-190" value="・以下のような構造とし、すべて任意入力とする。&lt;br&gt;・各項目は全てカンマ区切り等で複数入力することを期待するが、強制はしない。&lt;br&gt;・全項目MAX_LENGTH=255とする。&lt;br&gt;&lt;div&gt;&lt;p style=&quot;margin: 5px 0px; color: rgb(51, 51, 51); font-size: 13px;&quot;&gt;&lt;strong style=&quot;font-size: 12px;&quot;&gt;&lt;font face=&quot;Helvetica&quot;&gt;開発言語：&lt;/font&gt;&lt;/strong&gt;&lt;/p&gt;&lt;ul style=&quot;margin: 5px 0px; padding-left: 20px; color: rgb(51, 51, 51); font-size: 13px;&quot;&gt;&lt;li style=&quot;margin-bottom: 3px; font-size: 12px;&quot;&gt;&lt;font face=&quot;Helvetica&quot;&gt;フロントエンド：TypeScript 4.9, JavaScript (ES2022)&lt;/font&gt;&lt;/li&gt;&lt;li style=&quot;margin-bottom: 3px; font-size: 12px;&quot;&gt;&lt;font face=&quot;Helvetica&quot;&gt;バックエンド：Go 1.20, Python 3.11&lt;/font&gt;&lt;/li&gt;&lt;/ul&gt;&lt;p style=&quot;margin: 5px 0px; color: rgb(51, 51, 51); font-size: 13px;&quot;&gt;&lt;strong style=&quot;font-size: 12px;&quot;&gt;&lt;font face=&quot;Helvetica&quot;&gt;フレームワーク・ライブラリ：&lt;/font&gt;&lt;/strong&gt;&lt;/p&gt;&lt;ul style=&quot;margin: 5px 0px; padding-left: 20px; color: rgb(51, 51, 51); font-size: 13px;&quot;&gt;&lt;li style=&quot;margin-bottom: 3px; font-size: 12px;&quot;&gt;&lt;font face=&quot;Helvetica&quot;&gt;フロントエンド：React 18, Next.js 13, Redux Toolkit&lt;/font&gt;&lt;/li&gt;&lt;li style=&quot;margin-bottom: 3px; font-size: 12px;&quot;&gt;&lt;font face=&quot;Helvetica&quot;&gt;バックエンド：Echo, FastAPI&lt;/font&gt;&lt;/li&gt;&lt;li style=&quot;margin-bottom: 3px; font-size: 12px;&quot;&gt;&lt;font face=&quot;Helvetica&quot;&gt;テスト：Jest, React Testing Library, Cypress, Go testing&lt;/font&gt;&lt;/li&gt;&lt;li style=&quot;margin-bottom: 3px; font-size: 12px;&quot;&gt;&lt;font face=&quot;Helvetica&quot;&gt;ORM：GORM, SQLAlchemy&lt;/font&gt;&lt;/li&gt;&lt;/ul&gt;&lt;p style=&quot;margin: 5px 0px; color: rgb(51, 51, 51); font-size: 13px;&quot;&gt;&lt;strong style=&quot;font-size: 12px;&quot;&gt;&lt;font face=&quot;Helvetica&quot;&gt;インフラ・開発環境：&lt;/font&gt;&lt;/strong&gt;&lt;/p&gt;&lt;ul style=&quot;margin: 5px 0px; padding-left: 20px; color: rgb(51, 51, 51); font-size: 13px;&quot;&gt;&lt;li style=&quot;margin-bottom: 3px; font-size: 12px;&quot;&gt;&lt;font face=&quot;Helvetica&quot;&gt;クラウド：AWS（ECS Fargate, Lambda, Aurora MySQL, ElastiCache）&lt;/font&gt;&lt;/li&gt;&lt;li style=&quot;margin-bottom: 3px; font-size: 12px;&quot;&gt;&lt;font face=&quot;Helvetica&quot;&gt;コンテナ：Docker, Kubernetes&lt;/font&gt;&lt;/li&gt;&lt;li style=&quot;margin-bottom: 3px; font-size: 12px;&quot;&gt;&lt;font face=&quot;Helvetica&quot;&gt;CI/CD：GitHub Actions, ArgoCD&lt;/font&gt;&lt;/li&gt;&lt;li style=&quot;margin-bottom: 3px; font-size: 12px;&quot;&gt;&lt;font face=&quot;Helvetica&quot;&gt;IaC：Terraform, AWS CDK&lt;/font&gt;&lt;/li&gt;&lt;li style=&quot;margin-bottom: 3px; font-size: 12px;&quot;&gt;&lt;font face=&quot;Helvetica&quot;&gt;監視：Datadog, Prometheus, Grafana&lt;/font&gt;&lt;/li&gt;&lt;li style=&quot;margin-bottom: 3px; font-size: 12px;&quot;&gt;&lt;font face=&quot;Helvetica&quot;&gt;ロギング：CloudWatch Logs, OpenSearch&lt;/font&gt;&lt;/li&gt;&lt;/ul&gt;&lt;p style=&quot;margin: 5px 0px; color: rgb(51, 51, 51); font-size: 13px;&quot;&gt;&lt;strong style=&quot;font-size: 12px;&quot;&gt;&lt;font face=&quot;Helvetica&quot;&gt;開発ツール・プロジェクト管理：&lt;/font&gt;&lt;/strong&gt;&lt;/p&gt;&lt;ul style=&quot;margin: 5px 0px; padding-left: 20px; color: rgb(51, 51, 51); font-size: 13px;&quot;&gt;&lt;li style=&quot;margin-bottom: 3px; font-size: 12px;&quot;&gt;&lt;font face=&quot;Helvetica&quot;&gt;ソース管理：GitHub Enterprise&lt;/font&gt;&lt;/li&gt;&lt;li style=&quot;margin-bottom: 3px; font-size: 12px;&quot;&gt;&lt;font face=&quot;Helvetica&quot;&gt;プロジェクト管理：Jira, Confluence&lt;/font&gt;&lt;/li&gt;&lt;li style=&quot;margin-bottom: 3px; font-size: 12px;&quot;&gt;&lt;font face=&quot;Helvetica&quot;&gt;コミュニケーション：Slack, Zoom&lt;/font&gt;&lt;/li&gt;&lt;li style=&quot;margin-bottom: 3px; font-size: 12px;&quot;&gt;&lt;font face=&quot;Helvetica&quot;&gt;ドキュメント：Notion, Confluemce&lt;/font&gt;&lt;/li&gt;&lt;li style=&quot;margin-bottom: 3px; font-size: 12px;&quot;&gt;&lt;font face=&quot;Helvetica&quot;&gt;API開発：OpenAPI (Swagger), Postman&lt;/font&gt;&lt;/li&gt;&lt;li style=&quot;margin-bottom: 3px; font-size: 12px;&quot;&gt;&lt;font face=&quot;Helvetica&quot;&gt;デザイン：Figma&lt;/font&gt;&lt;/li&gt;&lt;/ul&gt;&lt;/div&gt;" style="rounded=0;whiteSpace=wrap;html=1;fillColor=#fff2cc;strokeColor=#d6b656;align=left;" parent="-X1_m2EYrhHD0JWwDC6E-205" vertex="1">
          <mxGeometry x="5" y="450" width="530" height="460" as="geometry" />
        </mxCell>
        <mxCell id="-X1_m2EYrhHD0JWwDC6E-193" style="rounded=0;orthogonalLoop=1;jettySize=auto;html=1;exitX=1;exitY=0.5;exitDx=0;exitDy=0;entryX=0;entryY=0.5;entryDx=0;entryDy=0;strokeColor=default;dashed=1;endArrow=none;endFill=0;" parent="-X1_m2EYrhHD0JWwDC6E-205" source="-X1_m2EYrhHD0JWwDC6E-192" target="-X1_m2EYrhHD0JWwDC6E-154" edge="1">
          <mxGeometry relative="1" as="geometry" />
        </mxCell>
        <mxCell id="-X1_m2EYrhHD0JWwDC6E-192" value="&lt;span style=&quot;&quot;&gt;&lt;b&gt;【プロジェクトID】&lt;/b&gt;&lt;/span&gt;&lt;br style=&quot;&quot;&gt;&lt;span style=&quot;&quot;&gt;・UUIDによって自動生成された文字列とする。&lt;/span&gt;&lt;br style=&quot;&quot;&gt;&lt;span style=&quot;&quot;&gt;&lt;b&gt;【会社名】&lt;/b&gt;&lt;/span&gt;&lt;br style=&quot;&quot;&gt;&lt;span style=&quot;&quot;&gt;・職務経歴書内の整合性担保のため、必ず職歴に入力された会社名を選択しなければならない。&lt;/span&gt;&lt;br style=&quot;&quot;&gt;&lt;span style=&quot;&quot;&gt;&lt;b&gt;【開始年月、終了年月】&lt;/b&gt;&lt;/span&gt;&lt;br style=&quot;&quot;&gt;&lt;span style=&quot;&quot;&gt;・開始年月 &amp;lt;= 終了年月&lt;br&gt;&lt;/span&gt;&lt;span style=&quot;&quot;&gt;・担当&lt;/span&gt;中フラグがTrueである場合、終了年月はNullとなる。&lt;span style=&quot;&quot;&gt;&lt;br&gt;&lt;b&gt;【プロジェクト名、プロジェクト概要】&lt;/b&gt;&lt;br&gt;・MAX_LENGTH=255、MIN_LENGTH=1&lt;br&gt;&lt;b&gt;【チーム構成】&lt;/b&gt;&lt;br&gt;・以下のような入力を期待するが、強制はしない。&lt;/span&gt;&lt;div&gt;&lt;span style=&quot;&quot;&gt;　8名（エンジニア6名、デザイナー1名、プロダクトマネージャー1名）&lt;br&gt;・MAX_LENGTH=255&lt;br&gt;&lt;b&gt;【役割】&lt;/b&gt;&lt;br&gt;&lt;/span&gt;・以下のような入力を期待するが、強制はしない。&lt;br&gt;　テックリード（設計、実装、レビュー、技術選定を担当）&lt;br&gt;&lt;span style=&quot;&quot;&gt;・MAX_LENGTH=255&lt;br&gt;&lt;b&gt;【成果】&lt;/b&gt;&lt;br&gt;・MAX_LENGTH=2000&lt;br&gt;&lt;b&gt;【作業工程】&lt;/b&gt;&lt;br&gt;・以下の工程のどこに携わったかチェックをつけれるように。&lt;br&gt;　要件定義、基本設計、詳細設計、実装・単体テスト、結合テスト、総合テスト、運用・保守&lt;/span&gt;&lt;/div&gt;" style="rounded=0;whiteSpace=wrap;html=1;fillColor=#fff2cc;strokeColor=#d6b656;align=left;" parent="-X1_m2EYrhHD0JWwDC6E-205" vertex="1">
          <mxGeometry y="50" width="530" height="340" as="geometry" />
        </mxCell>
        <mxCell id="-X1_m2EYrhHD0JWwDC6E-200" style="rounded=0;orthogonalLoop=1;jettySize=auto;html=1;exitX=0;exitY=0.5;exitDx=0;exitDy=0;entryX=1;entryY=0.5;entryDx=0;entryDy=0;dashed=1;endArrow=none;endFill=0;" parent="-X1_m2EYrhHD0JWwDC6E-205" source="-X1_m2EYrhHD0JWwDC6E-194" target="-X1_m2EYrhHD0JWwDC6E-128" edge="1">
          <mxGeometry relative="1" as="geometry" />
        </mxCell>
        <mxCell id="-X1_m2EYrhHD0JWwDC6E-194" value="&lt;span style=&quot;&quot;&gt;&lt;b&gt;【会社名】&lt;/b&gt;&lt;/span&gt;&lt;br style=&quot;&quot;&gt;&lt;span style=&quot;&quot;&gt;・MAX_LENGTH=35&lt;/span&gt;&lt;br style=&quot;&quot;&gt;&lt;span style=&quot;&quot;&gt;&lt;b&gt;【入社年月、退職年月】&lt;/b&gt;&lt;/span&gt;&lt;br style=&quot;&quot;&gt;・入社年月 &amp;lt;= 退職年月&lt;br&gt;・在職中フラグがTrueである場合、退職年月はNullとなる。" style="rounded=0;whiteSpace=wrap;html=1;fillColor=#fff2cc;strokeColor=#d6b656;align=left;" parent="-X1_m2EYrhHD0JWwDC6E-205" vertex="1">
          <mxGeometry x="1785" y="40" width="390" height="90" as="geometry" />
        </mxCell>
        <mxCell id="-X1_m2EYrhHD0JWwDC6E-201" style="rounded=0;orthogonalLoop=1;jettySize=auto;html=1;exitX=0;exitY=0.5;exitDx=0;exitDy=0;entryX=1;entryY=0.5;entryDx=0;entryDy=0;endArrow=none;endFill=0;dashed=1;" parent="-X1_m2EYrhHD0JWwDC6E-205" source="-X1_m2EYrhHD0JWwDC6E-195" target="-X1_m2EYrhHD0JWwDC6E-132" edge="1">
          <mxGeometry relative="1" as="geometry" />
        </mxCell>
        <mxCell id="-X1_m2EYrhHD0JWwDC6E-195" value="&lt;span style=&quot;&quot;&gt;&lt;b&gt;【資格名】&lt;/b&gt;&lt;/span&gt;&lt;br style=&quot;&quot;&gt;&lt;span style=&quot;&quot;&gt;・MAX_LENGTH=20&lt;/span&gt;" style="rounded=0;whiteSpace=wrap;html=1;fillColor=#fff2cc;strokeColor=#d6b656;align=left;" parent="-X1_m2EYrhHD0JWwDC6E-205" vertex="1">
          <mxGeometry x="1785" y="190" width="200" height="45" as="geometry" />
        </mxCell>
        <mxCell id="-X1_m2EYrhHD0JWwDC6E-202" style="rounded=0;orthogonalLoop=1;jettySize=auto;html=1;entryX=1;entryY=0.5;entryDx=0;entryDy=0;endArrow=none;endFill=0;dashed=1;" parent="-X1_m2EYrhHD0JWwDC6E-205" source="-X1_m2EYrhHD0JWwDC6E-196" target="-X1_m2EYrhHD0JWwDC6E-140" edge="1">
          <mxGeometry relative="1" as="geometry" />
        </mxCell>
        <mxCell id="-X1_m2EYrhHD0JWwDC6E-196" value="&lt;span style=&quot;&quot;&gt;&lt;b&gt;【ポートフォリオ名】&lt;/b&gt;&lt;/span&gt;&lt;br style=&quot;&quot;&gt;&lt;span style=&quot;&quot;&gt;・MAX_LENGTH=20&lt;/span&gt;&lt;br style=&quot;&quot;&gt;&lt;span style=&quot;&quot;&gt;&lt;b&gt;【ポートフォリオ概要】&lt;/b&gt;&lt;/span&gt;&lt;br style=&quot;&quot;&gt;・MAX_LENGTH=255&lt;br&gt;&lt;b&gt;【技術スタック】&lt;/b&gt;&lt;br&gt;・MAX_LENGTH=500&lt;br&gt;・以下のような入力を期待するが、強制はしない。&lt;br&gt;　&lt;span style=&quot;color: rgb(51, 51, 51); font-size: 13px;&quot;&gt;&lt;font face=&quot;Helvetica&quot;&gt;Vue.js, Python, FastAPI&lt;/font&gt;&lt;/span&gt;" style="rounded=0;whiteSpace=wrap;html=1;fillColor=#fff2cc;strokeColor=#d6b656;align=left;" parent="-X1_m2EYrhHD0JWwDC6E-205" vertex="1">
          <mxGeometry x="1785" y="280" width="350" height="130" as="geometry" />
        </mxCell>
        <mxCell id="-X1_m2EYrhHD0JWwDC6E-203" style="rounded=0;orthogonalLoop=1;jettySize=auto;html=1;exitX=0;exitY=0.5;exitDx=0;exitDy=0;entryX=1;entryY=0.5;entryDx=0;entryDy=0;endArrow=none;endFill=0;dashed=1;" parent="-X1_m2EYrhHD0JWwDC6E-205" source="-X1_m2EYrhHD0JWwDC6E-198" target="-X1_m2EYrhHD0JWwDC6E-145" edge="1">
          <mxGeometry relative="1" as="geometry" />
        </mxCell>
        <mxCell id="-X1_m2EYrhHD0JWwDC6E-198" value="&lt;span style=&quot;&quot;&gt;&lt;b&gt;【ソーシャル名】&lt;/b&gt;&lt;/span&gt;&lt;br style=&quot;&quot;&gt;&lt;span style=&quot;&quot;&gt;・MAX_LENGTH=20&lt;/span&gt;" style="rounded=0;whiteSpace=wrap;html=1;fillColor=#fff2cc;strokeColor=#d6b656;align=left;" parent="-X1_m2EYrhHD0JWwDC6E-205" vertex="1">
          <mxGeometry x="1785" y="460" width="200" height="45" as="geometry" />
        </mxCell>
        <mxCell id="-X1_m2EYrhHD0JWwDC6E-204" style="rounded=0;orthogonalLoop=1;jettySize=auto;html=1;exitX=0;exitY=0.5;exitDx=0;exitDy=0;entryX=1;entryY=0.5;entryDx=0;entryDy=0;endArrow=none;endFill=0;dashed=1;" parent="-X1_m2EYrhHD0JWwDC6E-205" source="-X1_m2EYrhHD0JWwDC6E-199" target="-X1_m2EYrhHD0JWwDC6E-149" edge="1">
          <mxGeometry relative="1" as="geometry" />
        </mxCell>
        <mxCell id="-X1_m2EYrhHD0JWwDC6E-199" value="&lt;span style=&quot;&quot;&gt;&lt;b&gt;【タイトル】&lt;/b&gt;&lt;/span&gt;&lt;br style=&quot;&quot;&gt;&lt;span style=&quot;&quot;&gt;・MAX_LENGTH=20&lt;/span&gt;&lt;br style=&quot;&quot;&gt;&lt;span style=&quot;&quot;&gt;&lt;b&gt;【コンテンツ】&lt;/b&gt;&lt;/span&gt;&lt;br style=&quot;&quot;&gt;・MAX_LENGTH=2000" style="rounded=0;whiteSpace=wrap;html=1;fillColor=#fff2cc;strokeColor=#d6b656;align=left;" parent="-X1_m2EYrhHD0JWwDC6E-205" vertex="1">
          <mxGeometry x="1775" y="570" width="215" height="80" as="geometry" />
        </mxCell>
        <mxCell id="-X1_m2EYrhHD0JWwDC6E-212" style="rounded=0;orthogonalLoop=1;jettySize=auto;html=1;exitX=1;exitY=0.5;exitDx=0;exitDy=0;entryX=0;entryY=0.5;entryDx=0;entryDy=0;endSize=12;" parent="1" source="-X1_m2EYrhHD0JWwDC6E-134" target="-X1_m2EYrhHD0JWwDC6E-2" edge="1">
          <mxGeometry relative="1" as="geometry" />
        </mxCell>
        <mxCell id="-X1_m2EYrhHD0JWwDC6E-213" value="&lt;font style=&quot;font-size: 14px;&quot;&gt;1&lt;/font&gt;" style="edgeLabel;html=1;align=center;verticalAlign=middle;resizable=0;points=[];" parent="-X1_m2EYrhHD0JWwDC6E-212" vertex="1" connectable="0">
          <mxGeometry x="-0.8418" y="-3" relative="1" as="geometry">
            <mxPoint y="-2" as="offset" />
          </mxGeometry>
        </mxCell>
        <mxCell id="-X1_m2EYrhHD0JWwDC6E-214" value="&lt;font style=&quot;font-size: 14px;&quot;&gt;1&lt;/font&gt;" style="edgeLabel;html=1;align=center;verticalAlign=middle;resizable=0;points=[];" parent="-X1_m2EYrhHD0JWwDC6E-212" vertex="1" connectable="0">
          <mxGeometry x="0.744" y="-2" relative="1" as="geometry">
            <mxPoint y="-1" as="offset" />
          </mxGeometry>
        </mxCell>
        <mxCell id="-X1_m2EYrhHD0JWwDC6E-215" style="rounded=0;orthogonalLoop=1;jettySize=auto;html=1;exitX=0;exitY=0.5;exitDx=0;exitDy=0;entryX=1;entryY=0.5;entryDx=0;entryDy=0;endSize=12;" parent="1" source="-X1_m2EYrhHD0JWwDC6E-25" target="-X1_m2EYrhHD0JWwDC6E-2" edge="1">
          <mxGeometry relative="1" as="geometry" />
        </mxCell>
        <mxCell id="-X1_m2EYrhHD0JWwDC6E-216" value="&lt;font style=&quot;font-size: 14px;&quot;&gt;1&lt;/font&gt;" style="edgeLabel;html=1;align=center;verticalAlign=middle;resizable=0;points=[];" parent="-X1_m2EYrhHD0JWwDC6E-215" vertex="1" connectable="0">
          <mxGeometry x="0.7382" y="1" relative="1" as="geometry">
            <mxPoint as="offset" />
          </mxGeometry>
        </mxCell>
        <mxCell id="-X1_m2EYrhHD0JWwDC6E-217" value="&lt;font style=&quot;font-size: 14px;&quot;&gt;1&lt;/font&gt;" style="edgeLabel;html=1;align=center;verticalAlign=middle;resizable=0;points=[];" parent="-X1_m2EYrhHD0JWwDC6E-215" vertex="1" connectable="0">
          <mxGeometry x="-0.7455" y="1" relative="1" as="geometry">
            <mxPoint as="offset" />
          </mxGeometry>
        </mxCell>
        <mxCell id="-X1_m2EYrhHD0JWwDC6E-221" style="rounded=0;orthogonalLoop=1;jettySize=auto;html=1;exitX=1;exitY=0.5;exitDx=0;exitDy=0;entryX=0;entryY=0.5;entryDx=0;entryDy=0;endArrow=none;endFill=0;dashed=1;" parent="1" source="-X1_m2EYrhHD0JWwDC6E-218" target="-X1_m2EYrhHD0JWwDC6E-134" edge="1">
          <mxGeometry relative="1" as="geometry" />
        </mxCell>
        <mxCell id="-X1_m2EYrhHD0JWwDC6E-218" value="&lt;span style=&quot;&quot;&gt;&lt;b&gt;【二段階認証設定】&lt;/b&gt;&lt;/span&gt;&lt;br style=&quot;&quot;&gt;&lt;span style=&quot;&quot;&gt;・ユーザーが有効化/無効化を設定でき、有効である場合のみログイン&lt;br&gt;&lt;/span&gt;　時に確認コードをメールアドレス宛に送信する。&lt;br style=&quot;&quot;&gt;&lt;span style=&quot;&quot;&gt;&lt;b&gt;【プロフィール画像】&lt;/b&gt;&lt;/span&gt;&lt;br style=&quot;&quot;&gt;・PNG形式またはJPEG形式のみ。&lt;br&gt;・画像サイズは5MBまで。&lt;br&gt;・ドメイン層では画像パスの身を保持し、実データはインフラ層へ&lt;br&gt;　委譲する" style="rounded=0;whiteSpace=wrap;html=1;fillColor=#fff2cc;strokeColor=#d6b656;align=left;" parent="1" vertex="1">
          <mxGeometry x="30" y="310" width="390" height="130" as="geometry" />
        </mxCell>
        <mxCell id="-X1_m2EYrhHD0JWwDC6E-223" style="rounded=0;orthogonalLoop=1;jettySize=auto;html=1;entryX=0.5;entryY=1;entryDx=0;entryDy=0;endArrow=none;endFill=0;dashed=1;" parent="1" source="-X1_m2EYrhHD0JWwDC6E-222" target="-X1_m2EYrhHD0JWwDC6E-25" edge="1">
          <mxGeometry relative="1" as="geometry" />
        </mxCell>
        <mxCell id="-X1_m2EYrhHD0JWwDC6E-222" value="&lt;span style=&quot;&quot;&gt;&lt;b&gt;【パスワード】&lt;/b&gt;&lt;/span&gt;&lt;br style=&quot;&quot;&gt;&lt;span style=&quot;&quot;&gt;・MAX_LENGTH=20、MIN_LENGTH=8&lt;br&gt;&lt;/span&gt;・最低1文字ずつ英字・数字・記号を含むこと。&lt;br style=&quot;&quot;&gt;&lt;b&gt;・&lt;/b&gt;パスワード変更時に旧パスワードの検証を必須とする。&lt;br&gt;・世代管理は行わない。" style="rounded=0;whiteSpace=wrap;html=1;fillColor=#fff2cc;strokeColor=#d6b656;align=left;" parent="1" vertex="1">
          <mxGeometry x="1980" y="510" width="330" height="90" as="geometry" />
        </mxCell>
        <mxCell id="-X1_m2EYrhHD0JWwDC6E-225" style="rounded=0;orthogonalLoop=1;jettySize=auto;html=1;entryX=0.25;entryY=1;entryDx=0;entryDy=0;endArrow=none;endFill=0;dashed=1;" parent="1" source="-X1_m2EYrhHD0JWwDC6E-224" target="-X1_m2EYrhHD0JWwDC6E-2" edge="1">
          <mxGeometry relative="1" as="geometry" />
        </mxCell>
        <mxCell id="-X1_m2EYrhHD0JWwDC6E-224" value="&lt;span style=&quot;&quot;&gt;&lt;b&gt;【ユーザーID】&lt;/b&gt;&lt;/span&gt;&lt;br style=&quot;&quot;&gt;&lt;span style=&quot;&quot;&gt;・&lt;/span&gt;UUIDによって自動生成された文字列とする。" style="rounded=0;whiteSpace=wrap;html=1;fillColor=#fff2cc;strokeColor=#d6b656;align=left;" parent="1" vertex="1">
          <mxGeometry x="830" y="500" width="330" height="50" as="geometry" />
        </mxCell>
        <mxCell id="-X1_m2EYrhHD0JWwDC6E-234" value="" style="group" parent="1" vertex="1" connectable="0">
          <mxGeometry x="100" y="40" width="210" height="180" as="geometry" />
        </mxCell>
        <mxCell id="-X1_m2EYrhHD0JWwDC6E-226" value="" style="rounded=1;whiteSpace=wrap;html=1;fillColor=#f5f5f5;fontColor=#333333;strokeColor=#666666;" parent="-X1_m2EYrhHD0JWwDC6E-234" vertex="1">
          <mxGeometry width="210" height="180" as="geometry" />
        </mxCell>
        <mxCell id="-X1_m2EYrhHD0JWwDC6E-227" value="" style="rounded=1;whiteSpace=wrap;html=1;fillColor=#f8cecc;strokeColor=#b85450;" parent="-X1_m2EYrhHD0JWwDC6E-234" vertex="1">
          <mxGeometry x="20" y="50" width="60" height="30" as="geometry" />
        </mxCell>
        <mxCell id="-X1_m2EYrhHD0JWwDC6E-228" value="" style="rounded=1;whiteSpace=wrap;html=1;fillColor=#d5e8d4;strokeColor=#82b366;" parent="-X1_m2EYrhHD0JWwDC6E-234" vertex="1">
          <mxGeometry x="20" y="90" width="60" height="30" as="geometry" />
        </mxCell>
        <mxCell id="-X1_m2EYrhHD0JWwDC6E-229" value="" style="rounded=1;whiteSpace=wrap;html=1;fillColor=#dae8fc;strokeColor=#6c8ebf;" parent="-X1_m2EYrhHD0JWwDC6E-234" vertex="1">
          <mxGeometry x="20" y="130" width="60" height="30" as="geometry" />
        </mxCell>
        <mxCell id="-X1_m2EYrhHD0JWwDC6E-230" value="ルートエンティティ" style="text;html=1;align=center;verticalAlign=middle;whiteSpace=wrap;rounded=0;" parent="-X1_m2EYrhHD0JWwDC6E-234" vertex="1">
          <mxGeometry x="90" y="50" width="110" height="30" as="geometry" />
        </mxCell>
        <mxCell id="-X1_m2EYrhHD0JWwDC6E-231" value="エンティティ" style="text;html=1;align=left;verticalAlign=middle;whiteSpace=wrap;rounded=0;" parent="-X1_m2EYrhHD0JWwDC6E-234" vertex="1">
          <mxGeometry x="90" y="90" width="110" height="30" as="geometry" />
        </mxCell>
        <mxCell id="-X1_m2EYrhHD0JWwDC6E-232" value="値オブジェクト" style="text;html=1;align=left;verticalAlign=middle;whiteSpace=wrap;rounded=0;" parent="-X1_m2EYrhHD0JWwDC6E-234" vertex="1">
          <mxGeometry x="90" y="130" width="110" height="30" as="geometry" />
        </mxCell>
        <mxCell id="-X1_m2EYrhHD0JWwDC6E-233" value="&lt;b&gt;凡例&lt;/b&gt;" style="text;html=1;align=center;verticalAlign=middle;whiteSpace=wrap;rounded=0;" parent="-X1_m2EYrhHD0JWwDC6E-234" vertex="1">
          <mxGeometry x="75" y="10" width="60" height="30" as="geometry" />
        </mxCell>
        <mxCell id="-X1_m2EYrhHD0JWwDC6E-235" value="&lt;font style=&quot;font-size: 32px;&quot;&gt;ドメインモデル&lt;/font&gt;" style="text;html=1;align=center;verticalAlign=middle;whiteSpace=wrap;rounded=0;" parent="1" vertex="1">
          <mxGeometry x="1052.5" y="80" width="290" height="30" as="geometry" />
        </mxCell>
      </root>
    </mxGraphModel>
  </diagram>
</mxfile>
